<svg xmlns="http://www.w3.org/2000/svg" version="1.1" xmlns:xlink="http://www.w3.org/1999/xlink" xmlns:svgjs="http://svgjs.dev/svgjs" width="1920" height="1080" preserveAspectRatio="none" viewBox="0 0 1920 1080"><g mask="url(&quot;#SvgjsMask1015&quot;)" fill="none"><rect width="1920" height="1080" x="0" y="0" fill="rgba(64, 64, 64, 1)"></rect><path d="M1641.43 1075.41L1712.02 1075.41L1712.02 1084.49L1641.43 1084.49z" stroke="rgba(103, 103, 103, 1)"></path><path d="M-12.46 976.61 a66.44 66.44 0 1 0 132.88 0 a66.44 66.44 0 1 0 -132.88 0z" fill="rgba(103, 103, 103, 1)"></path><path d="M1462.75 664.61L1489.37 664.61L1489.37 755.31L1462.75 755.31z" stroke="rgba(103, 103, 103, 1)"></path><path d="M472.72 430.95L509.48 430.95L509.48 474.32L472.72 474.32z" fill="rgba(103, 103, 103, 1)"></path><path d="M1026 1006.03L1100.59 1006.03L1100.59 1089.59L1026 1089.59z" stroke="rgba(103, 103, 103, 1)"></path><path d="M229.88 821.47a89.22 89.22 0 1 0 91.53 153.18z" stroke="rgba(103, 103, 103, 1)"></path><path d="M267.19 1049.07L352.44 1049.07L352.44 1118.75L267.19 1118.75z" stroke="rgba(103, 103, 103, 1)"></path><path d="M1065.12 132.11a75.67 75.67 0 1 0-51.3 142.38z" stroke="rgba(103, 103, 103, 1)"></path><path d="M849.81 890.57L878.06 890.57L878.06 918.82L849.81 918.82z" stroke="rgba(103, 103, 103, 1)"></path><path d="M834.03 99.36a89.77 89.77 0 1 0-115.61-137.37z" fill="rgba(103, 103, 103, 1)"></path><path d="M139.9 473.64L186.96 473.64L186.96 560.38L139.9 560.38z" fill="rgba(75, 75, 75, 1)"></path><path d="M499.72 103.72 a91.67 91.67 0 1 0 183.34 0 a91.67 91.67 0 1 0 -183.34 0z" fill="rgba(103, 103, 103, 1)"></path><path d="M826.85 646.41L912.81 646.41L912.81 732.37L826.85 732.37z" fill="rgba(103, 103, 103, 1)"></path><path d="M40.66 402.36a4.54 4.54 0 1 0 3.53-8.37z" fill="rgba(103, 103, 103, 1)"></path><path d="M322.94 356.01a96.23 96.23 0 1 0 144.49 127.14z" fill="rgba(103, 103, 103, 1)"></path><path d="M1814.72 16.47a47.26 47.26 0 1 0 35.74 87.5z" fill="rgba(103, 103, 103, 1)"></path><path d="M1737.53 642.2a83.83 83.83 0 1 0 144-85.88z" fill="rgba(103, 103, 103, 1)"></path><path d="M1635.95 92.4L1716.87 92.4L1716.87 99.38L1635.95 99.38z" fill="rgba(103, 103, 103, 1)"></path><path d="M1796.11 738.6L1857.07 738.6L1857.07 799.56L1796.11 799.56z" fill="rgba(103, 103, 103, 1)"></path><path d="M1235.35 913.81 a65.03 65.03 0 1 0 130.06 0 a65.03 65.03 0 1 0 -130.06 0z" stroke="rgba(103, 103, 103, 1)"></path><path d="M783.85 863.47L827.2 863.47L827.2 878.12L783.85 878.12z" stroke="rgba(103, 103, 103, 1)"></path><path d="M1492.8 113.81 a48.98 48.98 0 1 0 97.96 0 a48.98 48.98 0 1 0 -97.96 0z" fill="rgba(103, 103, 103, 1)"></path><path d="M1300.12 737.32L1386.34 737.32L1386.34 823.54L1300.12 823.54z" fill="rgba(75, 75, 75, 1)"></path></g><defs><mask id="SvgjsMask1015"><rect width="1920" height="1080" fill="#ffffff"></rect></mask></defs></svg>